<svg width="133" height="34" viewBox="0 0 133 34" fill="none" xmlns="http://www.w3.org/2000/svg">
<g filter="url(#filter0_dd)">
<circle cx="17" cy="14" r="12" fill="#6563FF"/>
</g>
<path d="M19.8685 11.6858C19.5992 11.1921 19.2289 10.8163 18.7577 10.5582C18.2864 10.3001 17.7366 10.1711 17.1083 10.1711C16.4126 10.1711 15.7955 10.3282 15.257 10.6424C14.7184 10.9565 14.2976 11.4053 13.9947 11.9888C13.6917 12.5722 13.5403 13.2454 13.5403 14.0084C13.5403 14.7938 13.6917 15.4783 13.9947 16.0617C14.3088 16.6452 14.7408 17.094 15.2906 17.4081C15.8404 17.7223 16.48 17.8794 17.2093 17.8794C18.1069 17.8794 18.8418 17.6438 19.414 17.1725C19.9863 16.69 20.3621 16.0224 20.5417 15.1697H16.5024V13.3689H22.8642V15.4222C22.7072 16.2412 22.3706 16.9986 21.8544 17.6943C21.3383 18.3899 20.6707 18.9509 19.8516 19.3773C19.0438 19.7924 18.1349 20 17.1251 20C15.9919 20 14.9652 19.7475 14.0452 19.2426C13.1363 18.7265 12.4182 18.014 11.8909 17.1052C11.3748 16.1964 11.1167 15.1641 11.1167 14.0084C11.1167 12.8527 11.3748 11.8205 11.8909 10.9116C12.4182 9.99158 13.1363 9.2791 14.0452 8.77419C14.9652 8.25806 15.9863 8 17.1083 8C18.4323 8 19.5823 8.32539 20.5585 8.97616C21.5347 9.61571 22.2079 10.5189 22.5781 11.6858H19.8685Z" fill="#F2F6F9"/>
<path d="M48.8182 12.1406H51.6307C51.2727 9.55185 48.9908 7.73011 46.0312 7.73011C42.5732 7.73011 39.9077 10.223 39.9077 14.4673C39.9077 18.6094 42.4006 21.179 46.0888 21.179C49.3935 21.179 51.7521 19.0888 51.7521 15.6435V13.9943H46.2741V16.0781H49.0866C49.0483 17.7017 47.9425 18.7308 46.1016 18.7308C44.0241 18.7308 42.7138 17.1776 42.7138 14.4418C42.7138 11.7188 44.0753 10.1783 46.076 10.1783C47.5014 10.1783 48.4666 10.9134 48.8182 12.1406ZM58.0361 21.1918C61.0148 21.1918 62.8685 19.1527 62.8685 16.1293C62.8685 13.0866 61.0148 11.054 58.0361 11.054C55.0574 11.054 53.2037 13.0866 53.2037 16.1293C53.2037 19.1527 55.0574 21.1918 58.0361 21.1918ZM58.0489 19.0824C56.6746 19.0824 55.9715 17.8232 55.9715 16.1101C55.9715 14.397 56.6746 13.1314 58.0489 13.1314C59.3976 13.1314 60.1007 14.397 60.1007 16.1101C60.1007 17.8232 59.3976 19.0824 58.0489 19.0824ZM68.8951 21.1918C71.8738 21.1918 73.7275 19.1527 73.7275 16.1293C73.7275 13.0866 71.8738 11.054 68.8951 11.054C65.9165 11.054 64.0628 13.0866 64.0628 16.1293C64.0628 19.1527 65.9165 21.1918 68.8951 21.1918ZM68.9079 19.0824C67.5336 19.0824 66.8305 17.8232 66.8305 16.1101C66.8305 14.397 67.5336 13.1314 68.9079 13.1314C70.2567 13.1314 70.9598 14.397 70.9598 16.1101C70.9598 17.8232 70.2567 19.0824 68.9079 19.0824ZM78.936 21.1598C80.5213 21.1598 81.3458 20.2457 81.723 19.4276H81.838V21H84.5227V7.90909H81.8061V12.831H81.723C81.3586 12.032 80.5724 11.054 78.9296 11.054C76.7755 11.054 74.9538 12.7287 74.9538 16.1037C74.9538 19.3892 76.6988 21.1598 78.936 21.1598ZM79.799 18.9929C78.463 18.9929 77.7343 17.804 77.7343 16.0909C77.7343 14.3906 78.4502 13.2209 79.799 13.2209C81.1221 13.2209 81.8636 14.3395 81.8636 16.0909C81.8636 17.8423 81.1093 18.9929 79.799 18.9929ZM90.6186 21H96.2117C99.152 21 100.718 19.4659 100.718 17.3821C100.718 15.4453 99.331 14.2756 97.8417 14.2053V14.0774C99.2032 13.7706 100.207 12.8054 100.207 11.2649C100.207 9.30256 98.7493 7.90909 95.8601 7.90909H90.6186V21ZM93.3864 18.7372V15.2599H95.7067C97.0363 15.2599 97.8608 16.027 97.8608 17.1072C97.8608 18.0916 97.1897 18.7372 95.6428 18.7372H93.3864ZM93.3864 13.3871V10.1463H95.4894C96.7167 10.1463 97.4134 10.7791 97.4134 11.7251C97.4134 12.7607 96.5696 13.3871 95.4382 13.3871H93.3864ZM105.088 21.1854C106.539 21.1854 107.478 20.5526 107.958 19.6385H108.034V21H110.617V14.3778C110.617 12.0384 108.635 11.054 106.449 11.054C104.097 11.054 102.55 12.179 102.173 13.9688L104.691 14.1733C104.877 13.5213 105.458 13.0419 106.436 13.0419C107.363 13.0419 107.894 13.5085 107.894 14.3139V14.3523C107.894 14.9851 107.223 15.0682 105.516 15.2344C103.573 15.4134 101.828 16.0653 101.828 18.2578C101.828 20.201 103.215 21.1854 105.088 21.1854ZM105.867 19.3061C105.03 19.3061 104.429 18.9162 104.429 18.1683C104.429 17.4013 105.062 17.0241 106.021 16.8899C106.615 16.8068 107.587 16.6662 107.913 16.4489V17.4908C107.913 18.5199 107.063 19.3061 105.867 19.3061ZM115.272 15.3239C115.279 14.0582 116.033 13.3168 117.132 13.3168C118.225 13.3168 118.884 14.0327 118.877 15.2344V21H121.6V14.7486C121.6 12.4602 120.258 11.054 118.213 11.054C116.755 11.054 115.701 11.7699 115.26 12.9141H115.144V11.1818H112.549V21H115.272V15.3239ZM123.567 21H126.29V17.8807L127.025 17.0433L129.703 21H132.893L129.064 15.4325L132.707 11.1818H129.581L126.437 14.9084H126.29V7.90909H123.567V21Z" fill="#4C4F56"/>
<defs>
<filter id="filter0_dd" x="0" y="0" width="34" height="34" filterUnits="userSpaceOnUse" color-interpolation-filters="sRGB">
<feFlood flood-opacity="0" result="BackgroundImageFix"/>
<feColorMatrix in="SourceAlpha" type="matrix" values="0 0 0 0 0 0 0 0 0 0 0 0 0 0 0 0 0 0 127 0"/>
<feOffset dy="3"/>
<feGaussianBlur stdDeviation="2.5"/>
<feColorMatrix type="matrix" values="0 0 0 0 0.64833 0 0 0 0 0.715111 0 0 0 0 0.808606 0 0 0 0.25 0"/>
<feBlend mode="normal" in2="BackgroundImageFix" result="effect1_dropShadow"/>
<feColorMatrix in="SourceAlpha" type="matrix" values="0 0 0 0 0 0 0 0 0 0 0 0 0 0 0 0 0 0 127 0"/>
<feOffset dy="1"/>
<feGaussianBlur stdDeviation="0.5"/>
<feColorMatrix type="matrix" values="0 0 0 0 0.828846 0 0 0 0 0.845171 0 0 0 0 0.866939 0 0 0 1 0"/>
<feBlend mode="normal" in2="effect1_dropShadow" result="effect2_dropShadow"/>
<feBlend mode="normal" in="SourceGraphic" in2="effect2_dropShadow" result="shape"/>
</filter>
</defs>
</svg>
