<svg width="24" height="24" viewBox="0 0 24 24" fill="none" xmlns="http://www.w3.org/2000/svg">
<path fill-rule="evenodd" clip-rule="evenodd" d="M13 7.4C13 7.95229 13.4477 8.4 14 8.4H15.5999C17.5881 8.4 19.1999 10.0118 19.1999 12C19.1999 13.9882 17.5881 15.6 15.5999 15.6H14C13.4477 15.6 13 16.0477 13 16.6V17C13 17.5523 13.4477 18 14 18H15.5999C18.9136 18 21.5999 15.3137 21.5999 12C21.5999 8.68629 18.9136 6 15.5999 6H14C13.4477 6 13 6.44772 13 7V7.4ZM10 8.4C10.5523 8.4 11 7.95228 11 7.4V7C11 6.44771 10.5523 6 10 6H8.3999C5.08619 6 2.3999 8.68629 2.3999 12C2.3999 15.3137 5.08619 18 8.3999 18H10C10.5523 18 11 17.5523 11 17V16.6C11 16.0477 10.5523 15.6 10 15.6H8.3999C6.41168 15.6 4.7999 13.9882 4.7999 12C4.7999 10.0118 6.41168 8.4 8.3999 8.4H10Z" fill="#D5DCE7"/>
<rect x="7.19971" y="10.8" width="9.6" height="2.4" rx="1" fill="#98A0B2"/>
</svg>
