<svg width="24" height="24" viewBox="0 0 24 24" fill="none" xmlns="http://www.w3.org/2000/svg">
<path d="M20.9999 12C20.755 12.0004 20.5186 11.9105 20.3359 11.7476L12 4.5L3.66397 11.7476C3.46571 11.9237 3.2056 12.0138 2.94087 11.9982C2.67614 11.9825 2.42847 11.8623 2.25235 11.6641C2.07623 11.4658 1.98609 11.2057 2.00175 10.941C2.01741 10.6762 2.13759 10.4286 2.33585 10.2524L11.3359 2.25244C11.5188 2.08968 11.7551 1.99976 11.9999 1.99976C12.2448 1.99976 12.4811 2.08968 12.664 2.25244L21.664 10.2524C21.8156 10.3871 21.9226 10.5647 21.971 10.7617C22.0193 10.9586 22.0066 11.1656 21.9346 11.3552C21.8625 11.5448 21.7346 11.708 21.5676 11.8231C21.4007 11.9383 21.2027 12 20.9999 12Z" fill="#6563FF"/>
<path fill-rule="evenodd" clip-rule="evenodd" d="M4 12.5L12 5.5L20 12.5V21.0375C20 21.1639 19.9742 21.2891 19.9239 21.4059C19.8737 21.5227 19.8 21.6288 19.7072 21.7182C19.6143 21.8075 19.5041 21.8784 19.3827 21.9268C19.2614 21.9752 19.1313 22 19 22H14V18.6667C14 17.7462 13.1046 17 12 17C10.8955 17 10 17.7462 10 18.6667L10 22H5C4.86867 22 4.73862 21.9752 4.61728 21.9268C4.49594 21.8784 4.38568 21.8075 4.29282 21.7182C4.19995 21.6288 4.12629 21.5227 4.07605 21.4059C4.02581 21.2891 3.99997 21.1639 4 21.0375V12.5ZM14 12C14 13.1046 13.1046 14 12 14C10.8954 14 10 13.1046 10 12C10 10.8954 10.8954 10 12 10C13.1046 10 14 10.8954 14 12Z" fill="#60D1FA"/>
</svg>
