<svg width="24" height="24" viewBox="0 0 24 24" fill="none" xmlns="http://www.w3.org/2000/svg">
<rect x="13.1997" y="2.40039" width="12" height="2.4" rx="1" transform="rotate(90 13.1997 2.40039)" fill="#98A0B2"/>
<path d="M8.3999 5.25327C8.3999 4.22327 7.35459 3.53468 6.5101 4.12438C4.02534 5.85947 2.3999 8.74032 2.3999 12.0008C2.3999 17.3027 6.69797 21.6008 11.9999 21.6008C17.3018 21.6008 21.5999 17.3027 21.5999 12.0008C21.5999 8.74032 19.9745 5.85947 17.4897 4.12438C16.6452 3.53468 15.5999 4.22326 15.5999 5.25327C15.5999 5.56938 15.7709 5.85801 16.0326 6.03529C17.9438 7.3298 19.1999 9.51862 19.1999 12.0008C19.1999 15.9773 15.9764 19.2008 11.9999 19.2008C8.02345 19.2008 4.7999 15.9773 4.7999 12.0008C4.7999 9.51862 6.05597 7.3298 7.96718 6.03529C8.2289 5.85802 8.3999 5.56938 8.3999 5.25327Z" fill="#D5DCE7"/>
</svg>
