<svg width="8" height="11" viewBox="0 0 8 11" fill="none" xmlns="http://www.w3.org/2000/svg">
<path d="M1.50024 11.0002C1.22357 11.0002 1 10.7767 1 10.5V1.5C1 1.22406 1.2243 0.999756 1.50024 0.999756C1.77618 0.999756 1.99976 1.22406 1.99976 1.5V10.5C1.99976 10.7767 1.77618 11.0002 1.50024 11.0002Z" fill="#6563FF"/>
<path d="M4.875 6.24976H1.62524C1.3493 6.24976 1.125 6.02618 1.125 5.74951C1.125 5.47357 1.3493 5.24927 1.62524 5.24927H4.875C5.7713 5.24927 6.50024 4.52032 6.50024 3.62402C6.50024 2.72772 5.7713 1.99878 4.875 1.99878H0.500244C0.224304 1.99878 0 1.77521 0 1.49854C0 1.22241 0.224304 0.998291 0.500244 0.998291H4.875C6.32245 0.998291 7.5 2.17566 7.5 3.62329C7.5 5.07074 6.32245 6.24976 4.875 6.24976Z" fill="#6563FF"/>
<path d="M5.125 11.0002H0.499756C0.223816 11.0002 -0.000488281 10.7767 -0.000488281 10.5C-0.000488281 10.2241 0.223816 9.99976 0.499756 9.99976H5.125C6.15918 9.99976 7 9.1582 7 8.12476C7 7.09131 6.15918 6.24976 5.125 6.24976H1.62476C1.34882 6.24976 1.12451 6.02618 1.12451 5.74951C1.12451 5.47357 1.34882 5.24927 1.62476 5.24927H5.125C6.71051 5.24927 7.99976 6.53851 7.99976 8.12402C7.99976 9.70953 6.71051 11.0002 5.125 11.0002Z" fill="#6563FF"/>
</svg>
