<svg width="8" height="12" viewBox="0 0 8 12" fill="none" xmlns="http://www.w3.org/2000/svg">
<path d="M3.72485 12V10.8851C2.73861 10.8851 2.46771 10.41 2.46771 9.37044V7.65817C2.46771 6.91023 2.23068 6.31282 1.17248 6.08232V5.91768C2.23068 5.68718 2.46771 5.08977 2.46771 4.34183V2.62956C2.46771 1.58997 2.73861 1.11486 3.72485 1.11486V0C2.04867 0 1.28253 0.635045 1.28253 2.559V3.90905C1.28253 4.63494 1.11464 5.04581 0.666178 5.21993C0.317433 5.35533 0 5.62354 0 5.99765C0 6.37176 0.317543 6.64002 0.66602 6.77611C1.1146 6.9513 1.28253 7.36365 1.28253 8.08624V9.441C1.28253 11.365 2.04867 12 3.72485 12Z" fill="#6563FF"/>
<path d="M4.27515 0V1.11486C5.26138 1.11486 5.53228 1.58997 5.53228 2.62956V4.34183C5.53228 5.08977 5.76932 5.68718 6.82751 5.91768V6.08232C5.76932 6.31282 5.53228 6.91023 5.53228 7.65817V9.37044C5.53228 10.41 5.26138 10.8851 4.27515 10.8851V12C5.95133 12 6.71746 11.365 6.71746 9.441V8.09094C6.71746 7.36506 6.88535 6.95419 7.33382 6.78007C7.68256 6.64467 7.99999 6.37646 7.99999 6.00235C7.99999 5.62824 7.68245 5.35998 7.33397 5.22389C6.88539 5.0487 6.71746 4.63635 6.71746 3.91376V2.559C6.71746 0.635045 5.95133 0 4.27515 0Z" fill="#A2A1FF"/>
</svg>
