<svg width="6" height="10" viewBox="0 0 6 10" fill="none" xmlns="http://www.w3.org/2000/svg">
<path d="M2.50024 10.0002H1.00024C0.724304 10.0002 0.5 9.77667 0.5 9.5C0.5 9.22406 0.724304 8.99976 1.00024 8.99976H2.50024C2.77618 8.99976 2.99976 9.22406 2.99976 9.5C2.99976 9.77667 2.77618 10.0002 2.50024 10.0002Z" fill="#6563FF"/>
<path d="M5.00024 1.00024H3.50024C3.2243 1.00024 3 0.776672 3 0.5C3 0.22406 3.2243 -0.000244141 3.50024 -0.000244141H5.00024C5.27618 -0.000244141 5.50049 0.223328 5.50049 0.5C5.50049 0.776672 5.27618 1.00024 5.00024 1.00024Z" fill="#6563FF"/>
<path d="M1.75027 10.0004C1.70596 10.0004 1.6611 9.9944 1.61605 9.98249C1.34982 9.90815 1.19381 9.63295 1.26797 9.36671L3.76773 0.36671C3.84207 0.101207 4.11801 -0.0540661 4.38351 0.0186267C4.64975 0.0929676 4.80576 0.368175 4.7316 0.634411L2.23184 9.63441C2.17031 9.85487 1.96926 10.0004 1.75027 10.0004Z" fill="#6563FF"/>
</svg>
