<svg width="11" height="12" viewBox="0 0 11 12" fill="none" xmlns="http://www.w3.org/2000/svg">
<path d="M9.6875 11.7812H0.6875C0.41156 11.7812 0.187256 11.5569 0.187256 11.281C0.187256 11.0051 0.410828 10.7808 0.6875 10.7808H9.6875C9.96344 10.7808 10.1877 11.0051 10.1877 11.281C10.1877 11.5569 9.96344 11.7812 9.6875 11.7812Z" fill="#A2A1FF"/>
<path d="M10.4975 2.49766L9.34616 1.34629C8.7897 0.789102 7.88974 0.759805 7.29867 1.27653L2.59543 5.36034C2.49051 5.45116 2.42825 5.58153 2.42367 5.72032C2.42074 5.81041 2.44931 5.89354 2.49124 5.97081L1.70975 7.32909C1.59714 7.52483 1.62955 7.77239 1.78921 7.93206L1.96463 8.10766L0.647734 9.42913C0.505278 9.57232 0.462431 9.78765 0.539702 9.97369C0.617705 10.1605 0.799162 10.2819 1.00168 10.2819H3.00192C3.11893 10.2819 3.23154 10.2414 3.32144 10.1663L3.70541 9.84771L3.91177 10.0539C4.00772 10.1506 4.13589 10.2002 4.26572 10.2002C4.35123 10.2002 4.43674 10.1784 4.51474 10.1334L5.87228 9.35259C5.94498 9.39159 6.02298 9.41943 6.10702 9.41943H6.12424C6.26303 9.41412 6.3934 9.35186 6.48422 9.24767L10.5666 4.54588C11.0847 3.95335 11.0547 3.05412 10.4975 2.49766ZM4.34738 9.07592L3.02664 7.75518C3.02591 7.75445 3.02591 7.75353 3.02518 7.7528C3.02444 7.75206 3.02371 7.75206 3.02298 7.75133L2.76791 7.49645L3.20901 6.72979L5.11478 8.63555L4.34738 9.07592Z" fill="#6563FF"/>
</svg>
