<svg width="8" height="10" viewBox="0 0 8 10" fill="none" xmlns="http://www.w3.org/2000/svg">
<path d="M4 10.0002C2.34546 10.0002 1 8.76648 1 7.25C1 6.97406 1.2243 6.74976 1.50024 6.74976C1.77618 6.74976 2.00049 6.97333 2.00049 7.25C2.00049 8.21442 2.89752 8.99976 4.00073 8.99976C5.10321 8.99976 6.00098 8.21442 6.00098 7.25C6.00098 6.28558 5.10321 5.50024 4 5.50024C2.34546 5.50024 1 4.26648 1 2.75C1 1.23352 2.34546 -0.000244141 4 -0.000244141C5.65454 -0.000244141 7 1.23352 7 2.75C7 3.02594 6.7757 3.25024 6.49976 3.25024C6.22382 3.25024 6.00024 3.02667 6.00024 2.75C6.00024 1.78558 5.10321 1.00024 4 1.00024C2.89752 1.00024 1.99976 1.78558 1.99976 2.75C1.99976 3.71442 2.89752 4.49976 4 4.49976C5.65454 4.49976 7 5.73352 7 7.25C7 8.76648 5.65454 10.0002 4 10.0002Z" fill="#6563FF"/>
<path d="M7.50024 5.50024H0.500488C0.224548 5.50024 0.000244141 5.27667 0.000244141 5C0.000244141 4.72406 0.224548 4.49976 0.500488 4.49976H7.50024C7.77618 4.49976 8.00049 4.72333 8.00049 5C8.00049 5.27667 7.77618 5.50024 7.50024 5.50024Z" fill="#A2A1FF"/>
</svg>
