<svg width="10" height="10" viewBox="0 0 10 10" fill="none" xmlns="http://www.w3.org/2000/svg">
<path d="M5 8.50024C3.07025 8.50024 1.49976 6.92975 1.49976 5V0.5C1.49976 0.22406 1.72406 -0.000244141 2 -0.000244141C2.27594 -0.000244141 2.50024 0.22406 2.50024 0.5V5C2.50024 6.37842 3.62158 7.49976 5 7.49976C6.37842 7.49976 7.49976 6.37842 7.49976 5V0.5C7.49976 0.22406 7.72406 -0.000244141 8 -0.000244141C8.27594 -0.000244141 8.50024 0.22406 8.50024 0.5V5C8.50024 6.92975 6.92975 8.50024 5 8.50024Z" fill="#6563FF"/>
<path d="M2.99976 1.00024H0.999512C0.723572 1.00024 0.5 0.776672 0.5 0.5C0.5 0.22406 0.724304 -0.000244141 1.00024 -0.000244141H3.00049C3.2757 -0.000244141 3.5 0.22406 3.5 0.5C3.5 0.776672 3.2757 1.00024 2.99976 1.00024Z" fill="#6563FF"/>
<path d="M8.99976 1.00024H6.99951C6.72357 1.00024 6.5 0.776672 6.5 0.5C6.5 0.22406 6.7243 -0.000244141 7.00024 -0.000244141H9.00049C9.2757 -0.000244141 9.5 0.22406 9.5 0.5C9.5 0.776672 9.2757 1.00024 8.99976 1.00024Z" fill="#6563FF"/>
<path d="M8.50024 10.0002H1.50049C1.22455 10.0002 1.00024 9.77667 1.00024 9.5C1.00024 9.22406 1.22455 8.99976 1.50049 8.99976H8.50024C8.77618 8.99976 9.00049 9.22333 9.00049 9.5C8.99976 9.77667 8.77618 10.0002 8.50024 10.0002Z" fill="#A2A1FF"/>
</svg>
