<svg width="13" height="10" viewBox="0 0 13 10" fill="none" xmlns="http://www.w3.org/2000/svg">
<path d="M8.16717 9.14398C8.16717 9.47872 8.43853 9.75009 8.77328 9.75009H12.3508C12.6267 9.75009 12.8504 9.52639 12.8504 9.25044C12.8504 8.9745 12.6267 8.7508 12.3508 8.7508H9.93706V8.70605L11.0905 7.73162C12.214 6.83674 12.7062 6.25009 12.7062 5.41486C12.7062 4.36586 11.7915 3.56543 10.4243 3.56543C9.30556 3.56543 8.45369 4.08221 8.18881 4.92367C8.09111 5.23403 8.3663 5.50435 8.69167 5.50435C9.01704 5.50435 9.2591 5.21392 9.44911 4.9498C9.63804 4.68719 9.97512 4.53489 10.4044 4.53489C11.0407 4.53489 11.5329 4.87793 11.5329 5.43475C11.5329 5.93191 11.175 6.27992 10.5287 6.84171L8.37891 8.68372C8.24452 8.79887 8.16717 8.96701 8.16717 9.14398Z" fill="#6563FF"/>
<path d="M2.37033 0.712361C2.2482 0.496916 2.01967 0.36377 1.77201 0.36377C1.23413 0.36377 0.904418 0.953408 1.18605 1.41166L2.88863 4.18195L1.16785 6.94671C0.882109 7.40581 1.21224 8.00013 1.753 8.00013C1.99492 8.00013 2.21912 7.87331 2.34374 7.66596L3.85809 5.14644L5.37866 7.66901C5.50253 7.8745 5.72495 8.00013 5.96489 8.00013C6.50337 8.00013 6.83099 7.40707 6.54431 6.95124L4.80269 4.18195L6.53323 1.4073C6.81673 0.952766 6.48992 0.36377 5.95422 0.36377C5.70942 0.36377 5.48338 0.494892 5.36185 0.707391L3.85809 3.33678L2.37033 0.712361Z" fill="#A2A1FF"/>
</svg>
