<svg width="13" height="12" viewBox="0 0 13 12" fill="none" xmlns="http://www.w3.org/2000/svg">
<path d="M8.16717 6.30316C8.16717 6.6379 8.43853 6.90927 8.77328 6.90927H12.3508C12.6267 6.90927 12.8504 6.68557 12.8504 6.40962C12.8504 6.13368 12.6267 5.90998 12.3508 5.90998H9.93706V5.86523L11.0905 4.8908C12.214 3.99592 12.7062 3.40927 12.7062 2.57404C12.7062 1.52504 11.7915 0.724609 10.4243 0.724609C9.30556 0.724609 8.45369 1.24139 8.18881 2.08285C8.09111 2.39321 8.3663 2.66353 8.69167 2.66353C9.01704 2.66353 9.2591 2.3731 9.44911 2.10898C9.63804 1.84637 9.97512 1.69407 10.4044 1.69407C11.0407 1.69407 11.5329 2.03711 11.5329 2.59393C11.5329 3.09109 11.175 3.4391 10.5287 4.00089L8.37891 5.8429C8.24452 5.95805 8.16717 6.12618 8.16717 6.30316Z" fill="#6563FF"/>
<path d="M2.37033 4.71236C2.2482 4.49692 2.01967 4.36377 1.77201 4.36377C1.23413 4.36377 0.904418 4.95341 1.18605 5.41166L2.88863 8.18195L1.16785 10.9467C0.882109 11.4058 1.21224 12.0001 1.753 12.0001C1.99492 12.0001 2.21912 11.8733 2.34374 11.666L3.85809 9.14644L5.37866 11.669C5.50253 11.8745 5.72495 12.0001 5.96488 12.0001C6.50337 12.0001 6.83099 11.4071 6.54431 10.9512L4.80269 8.18195L6.53323 5.4073C6.81673 4.95277 6.48992 4.36377 5.95422 4.36377C5.70942 4.36377 5.48338 4.49489 5.36185 4.70739L3.85809 7.33678L2.37033 4.71236Z" fill="#A2A1FF"/>
</svg>
